<svg width="16" height="16" viewBox="0 0 16 16" fill="none" xmlns="http://www.w3.org/2000/svg">
<path d="M4.76008 0.0799561C2.17977 0.0799561 0.0800781 2.17965 0.0800781 4.75996V11.24C0.0800781 13.8203 2.17977 15.92 4.76008 15.92H11.2401C13.8204 15.92 15.9201 13.8203 15.9201 11.24V4.75996C15.9201 2.17965 13.8204 0.0799561 11.2401 0.0799561H4.76008ZM4.76008 0.799956H11.2401C13.4312 0.799956 15.2001 2.56882 15.2001 4.75996V11.24C15.2001 13.4311 13.4312 15.2 11.2401 15.2H4.76008C2.56895 15.2 0.800078 13.4311 0.800078 11.24V4.75996C0.800078 2.56882 2.56895 0.799956 4.76008 0.799956ZM12.3201 2.95996C11.9224 2.95996 11.6001 3.28231 11.6001 3.67996C11.6001 4.0776 11.9224 4.39996 12.3201 4.39996C12.7177 4.39996 13.0401 4.0776 13.0401 3.67996C13.0401 3.28231 12.7177 2.95996 12.3201 2.95996ZM8.00008 4.03996C5.81729 4.03996 4.04008 5.81717 4.04008 7.99996C4.04008 10.1827 5.81729 11.96 8.00008 11.96C10.1829 11.96 11.9601 10.1827 11.9601 7.99996C11.9601 5.81717 10.1829 4.03996 8.00008 4.03996ZM8.00008 4.75996C9.79375 4.75996 11.2401 6.20629 11.2401 7.99996C11.2401 9.79362 9.79375 11.24 8.00008 11.24C6.20641 11.24 4.76008 9.79362 4.76008 7.99996C4.76008 6.20629 6.20641 4.75996 8.00008 4.75996Z" fill="white"/>
</svg>
