<svg width="18" height="18" viewBox="0 0 18 18" fill="none" xmlns="http://www.w3.org/2000/svg">
<g clip-path="url(#clip0_105_14)">
<path d="M18.0226 3.75753C17.3574 4.05284 16.6445 4.25112 15.8949 4.34112C16.6599 3.88268 17.2478 3.15706 17.5234 2.29362C16.809 2.7169 16.0145 3.02487 15.1721 3.19081C14.4971 2.47081 13.5353 2.02222 12.4707 2.02222C10.426 2.02222 8.76806 3.67878 8.76806 5.72347C8.76806 6.01316 8.80182 6.29581 8.8651 6.56722C5.78822 6.41253 3.0615 4.93878 1.23478 2.69862C0.915565 3.24706 0.734161 3.88269 0.734161 4.5605C0.734161 5.8444 1.38666 6.97784 2.38088 7.643C1.77338 7.62331 1.20244 7.45597 0.703223 7.17894C0.703223 7.19441 0.703223 7.20987 0.703223 7.22534C0.703223 9.01972 1.9801 10.5146 3.67182 10.8563C3.36244 10.9407 3.03478 10.9857 2.69728 10.9857C2.45822 10.9857 2.22619 10.9632 1.99978 10.9182C2.47228 12.3877 3.83916 13.4607 5.45775 13.4902C4.19213 14.483 2.59603 15.0736 0.860723 15.0736C0.561192 15.0736 0.267285 15.0568 -0.0209961 15.0216C1.61588 16.0735 3.56213 16.6852 5.65322 16.6852C12.4623 16.6852 16.186 11.0447 16.186 6.15378C16.186 5.99347 16.1818 5.83175 16.1762 5.67425C16.899 5.15253 17.5262 4.50003 18.0226 3.75753Z" fill="white"/>
</g>
<defs>
<clipPath id="clip0_105_14">
<rect width="18" height="18" fill="white"/>
</clipPath>
</defs>
</svg>
